<svg xmlns:xlink="http://www.w3.org/1999/xlink" xmlns="http://www.w3.org/2000/svg" width="55" height="55" viewBox="0 0 55 55" fill="none">
<rect x="12.5938" y="10.9041" width="32.0625" height="33.75" fill="white"/>
<path fill-rule="evenodd" clip-rule="evenodd" d="M42.9886 7.52856H12.5943C9.79656 7.52856 7.52856 9.79512 7.52856 12.5911V42.9661C7.52856 45.762 9.79656 48.0286 12.5943 48.0286H42.9886C45.7762 48.0144 48.0286 45.752 48.0286 42.9661V12.5911C48.0286 9.80513 45.7762 7.54271 42.9886 7.52856ZM15.9661 12.5911H22.7161C24.58 12.5911 26.0911 14.1021 26.0911 15.9661V39.5911C26.0911 41.455 24.58 42.9661 22.7161 42.9661H15.9661C14.1021 42.9661 12.5911 41.455 12.5911 39.5911V15.9661C12.5911 14.1021 14.1021 12.5911 15.9661 12.5911ZM39.5911 12.5911H32.8411C30.9771 12.5911 29.4661 14.1021 29.4661 15.9661V27.7786C29.4661 29.6425 30.9771 31.1536 32.8411 31.1536H39.5911C41.455 31.1536 42.9661 29.6425 42.9661 27.7786V15.9661C42.9661 14.1021 41.455 12.5911 39.5911 12.5911Z" fill="url(#paint0_linear_651_1223)"/>
<defs>
<linearGradient id="paint0_linear_651_1223" x1="27.7914" y1="48.0286" x2="27.7914" y2="7.52856" gradientUnits="userSpaceOnUse">
<stop stop-color="#0052CC"/>
<stop offset="0.51698" stop-color="#217EF8"/>
<stop offset="1" stop-color="#2684FF"/>
</linearGradient>
</defs>
</svg>