<svg xmlns:xlink="http://www.w3.org/1999/xlink" xmlns="http://www.w3.org/2000/svg" width="54" height="54" viewBox="0 0 54 54" fill="none">
<path d="M51.0015 27C51.0015 13.7452 40.2563 3 27.0015 3C13.7466 3 3.00146 13.7452 3.00146 27C3.00146 40.2548 13.7466 51 27.0015 51C40.2563 51 51.0015 40.2548 51.0015 27Z" fill="white"/>
<path d="M51.0015 27C51.0015 13.7452 40.2563 3 27.0015 3C13.7466 3 3.00146 13.7452 3.00146 27C3.00146 40.2548 13.7466 51 27.0015 51C40.2563 51 51.0015 40.2548 51.0015 27Z" fill="white"/>
<path fill-rule="evenodd" clip-rule="evenodd" d="M12.937 35.9142L18.1281 31.938C20.8848 35.5371 23.8122 37.1956 27.0743 37.1956C30.3184 37.1956 33.1654 35.5559 35.7985 31.9856L41.0612 35.8666C37.2646 41.0145 32.5414 43.7344 27.0743 43.7344C21.6254 43.7344 16.8583 41.0337 12.937 35.9142Z" fill="url(#paint0_linear_651_1001)"/>
<path fill-rule="evenodd" clip-rule="evenodd" d="M27.0595 18.6318L17.8201 26.5932L13.5518 21.6396L27.0779 9.98438L40.4987 21.6487L36.2094 26.5841L27.0595 18.6318Z" fill="url(#paint1_linear_651_1001)"/>
<defs>
<linearGradient id="paint0_linear_651_1001" x1="12.937" y1="39.9604" x2="41.0612" y2="39.9604" gradientUnits="userSpaceOnUse">
<stop stop-color="#8930FD"/>
<stop offset="1" stop-color="#49CCF9"/>
</linearGradient>
<linearGradient id="paint1_linear_651_1001" x1="13.5518" y1="21.2793" x2="40.4987" y2="21.2793" gradientUnits="userSpaceOnUse">
<stop stop-color="#FF02F0"/>
<stop offset="1" stop-color="#FFC800"/>
</linearGradient>
</defs>
</svg>