<svg xmlns:xlink="http://www.w3.org/1999/xlink" xmlns="http://www.w3.org/2000/svg" width="54" height="54" viewBox="0 0 54 54" fill="none">
<g clip-path="url(#clip0_651_1123)">
<mask id="mask0_651_1123" style="mask-type:alpha" maskUnits="userSpaceOnUse" x="10" y="4" width="33" height="45">
<path d="M30.7408 4.5H13.5959C11.9318 4.5 10.5703 5.86151 10.5703 7.52557V45.8494C10.5703 47.5135 11.9318 48.875 13.5959 48.875H39.8175C41.4815 48.875 42.8431 47.5135 42.8431 45.8494V16.6023L30.7408 4.5Z" fill="white"/>
</mask>
<g mask="url(#mask0_651_1123)">
<path d="M30.7408 4.5H13.5959C11.9318 4.5 10.5703 5.86151 10.5703 7.52557V45.8494C10.5703 47.5135 11.9318 48.875 13.5959 48.875H39.8175C41.4815 48.875 42.8431 47.5135 42.8431 45.8494V16.6023L35.7834 11.5596L30.7408 4.5Z" fill="#F4B400"/>
</g>
<mask id="mask1_651_1123" style="mask-type:alpha" maskUnits="userSpaceOnUse" x="10" y="4" width="33" height="45">
<path d="M30.7408 4.5H13.5959C11.9318 4.5 10.5703 5.86151 10.5703 7.52557V45.8494C10.5703 47.5135 11.9318 48.875 13.5959 48.875H39.8175C41.4815 48.875 42.8431 47.5135 42.8431 45.8494V16.6023L30.7408 4.5Z" fill="white"/>
</mask>
<g mask="url(#mask1_651_1123)">
<path d="M33.2603 24.6699H20.1495C19.3175 24.6699 18.6367 25.3507 18.6367 26.1827V39.2935C18.6367 40.1255 19.3175 40.8063 20.1495 40.8063H33.2603C34.0923 40.8063 34.7731 40.1255 34.7731 39.2935V26.1827C34.7731 25.3507 34.0923 24.6699 33.2603 24.6699ZM32.7561 36.268H20.6538V29.2083H32.7561V36.268Z" fill="#F1F1F1"/>
</g>
<mask id="mask2_651_1123" style="mask-type:alpha" maskUnits="userSpaceOnUse" x="10" y="4" width="33" height="45">
<path d="M30.7408 4.5H13.5959C11.9318 4.5 10.5703 5.86151 10.5703 7.52557V45.8494C10.5703 47.5135 11.9318 48.875 13.5959 48.875H39.8175C41.4815 48.875 42.8431 47.5135 42.8431 45.8494V16.6023L30.7408 4.5Z" fill="white"/>
</mask>
<g mask="url(#mask2_651_1123)">
<path d="M31.6257 15.7173L42.843 26.932V16.6023L31.6257 15.7173Z" fill="url(#paint0_linear_651_1123)"/>
</g>
<mask id="mask3_651_1123" style="mask-type:alpha" maskUnits="userSpaceOnUse" x="10" y="4" width="33" height="45">
<path d="M30.7408 4.5H13.5959C11.9318 4.5 10.5703 5.86151 10.5703 7.52557V45.8494C10.5703 47.5135 11.9318 48.875 13.5959 48.875H39.8175C41.4815 48.875 42.8431 47.5135 42.8431 45.8494V16.6023L30.7408 4.5Z" fill="white"/>
</mask>
<g mask="url(#mask3_651_1123)">
<path d="M30.7441 4.5V13.5767C30.7441 15.2483 32.0981 16.6023 33.7697 16.6023H42.8464L30.7441 4.5Z" fill="#FADA80"/>
</g>
<mask id="mask4_651_1123" style="mask-type:alpha" maskUnits="userSpaceOnUse" x="10" y="4" width="33" height="45">
<path d="M30.7408 4.5H13.5959C11.9318 4.5 10.5703 5.86151 10.5703 7.52557V45.8494C10.5703 47.5135 11.9318 48.875 13.5959 48.875H39.8175C41.4815 48.875 42.8431 47.5135 42.8431 45.8494V16.6023L30.7408 4.5Z" fill="white"/>
</mask>
<g mask="url(#mask4_651_1123)">
<path d="M30.7441 4.5V4.75213L42.5943 16.6023H42.8464L30.7441 4.5Z" fill="white" fill-opacity="0.1"/>
</g>
<mask id="mask5_651_1123" style="mask-type:alpha" maskUnits="userSpaceOnUse" x="10" y="4" width="33" height="45">
<path d="M30.7408 4.5H13.5959C11.9318 4.5 10.5703 5.86151 10.5703 7.52557V45.8494C10.5703 47.5135 11.9318 48.875 13.5959 48.875H39.8175C41.4815 48.875 42.8431 47.5135 42.8431 45.8494V16.6023L30.7408 4.5Z" fill="white"/>
</mask>
<g mask="url(#mask5_651_1123)">
<path d="M13.5959 4.5C11.9318 4.5 10.5703 5.86151 10.5703 7.52557V7.7777C10.5703 6.11364 11.9318 4.75213 13.5959 4.75213H30.7408V4.5H13.5959Z" fill="white" fill-opacity="0.2"/>
</g>
<mask id="mask6_651_1123" style="mask-type:alpha" maskUnits="userSpaceOnUse" x="10" y="4" width="33" height="45">
<path d="M30.7408 4.5H13.5959C11.9318 4.5 10.5703 5.86151 10.5703 7.52557V45.8494C10.5703 47.5135 11.9318 48.875 13.5959 48.875H39.8175C41.4815 48.875 42.8431 47.5135 42.8431 45.8494V16.6023L30.7408 4.5Z" fill="white"/>
</mask>
<g mask="url(#mask6_651_1123)">
<path d="M39.8175 48.6223H13.5959C11.9318 48.6223 10.5703 47.2608 10.5703 45.5967V45.8488C10.5703 47.5129 11.9318 48.8744 13.5959 48.8744H39.8175C41.4815 48.8744 42.8431 47.5129 42.8431 45.8488V45.5967C42.8431 47.2608 41.4815 48.6223 39.8175 48.6223Z" fill="#BF360C" fill-opacity="0.2"/>
</g>
<mask id="mask7_651_1123" style="mask-type:alpha" maskUnits="userSpaceOnUse" x="10" y="4" width="33" height="45">
<path d="M30.7408 4.5H13.5959C11.9318 4.5 10.5703 5.86151 10.5703 7.52557V45.8494C10.5703 47.5135 11.9318 48.875 13.5959 48.875H39.8175C41.4815 48.875 42.8431 47.5135 42.8431 45.8494V16.6023L30.7408 4.5Z" fill="white"/>
</mask>
<g mask="url(#mask7_651_1123)">
<path d="M33.7697 16.6022C32.0981 16.6022 30.7441 15.2483 30.7441 13.5767V13.8288C30.7441 15.5004 32.0981 16.8543 33.7697 16.8543H42.8464V16.6022H33.7697Z" fill="#BF360C" fill-opacity="0.1"/>
</g>
<path d="M30.7434 4.5H13.5986C11.9345 4.5 10.573 5.86151 10.573 7.52557V45.8494C10.573 47.5135 11.9345 48.875 13.5986 48.875H39.8202C41.4842 48.875 42.8457 47.5135 42.8457 45.8494V16.6023L30.7434 4.5Z" fill="url(#paint1_radial_651_1123)"/>
</g>
<defs>
<linearGradient id="paint0_linear_651_1123" x1="37.235" y1="16.6802" x2="37.235" y2="26.9336" gradientUnits="userSpaceOnUse">
<stop stop-color="#BF360C" stop-opacity="0.2"/>
<stop offset="1" stop-color="#BF360C" stop-opacity="0.02"/>
</linearGradient>
<radialGradient id="paint1_radial_651_1123" cx="0" cy="0" r="1" gradientUnits="userSpaceOnUse" gradientTransform="translate(11.5954 5.38205) scale(52.0393 52.0394)">
<stop stop-color="white" stop-opacity="0.1"/>
<stop offset="1" stop-color="white" stop-opacity="0"/>
</radialGradient>
<clipPath id="clip0_651_1123">
<rect width="32.85" height="45" fill="white" transform="translate(10.575 4.5)"/>
</clipPath>
</defs>
</svg>