<svg xmlns:xlink="http://www.w3.org/1999/xlink" xmlns="http://www.w3.org/2000/svg" width="54" height="54" viewBox="0 0 54 54" fill="none">
<path d="M3.375 19.575C3.375 13.9045 3.375 11.0692 4.47856 8.90335C5.44928 6.99821 6.99821 5.44928 8.90335 4.47856C11.0692 3.375 13.9045 3.375 19.575 3.375H34.425C40.0955 3.375 42.9308 3.375 45.0967 4.47856C47.0018 5.44928 48.5507 6.99821 49.5214 8.90335C50.625 11.0692 50.625 13.9045 50.625 19.575V34.425C50.625 40.0955 50.625 42.9308 49.5214 45.0967C48.5507 47.0018 47.0018 48.5507 45.0967 49.5214C42.9308 50.625 40.0955 50.625 34.425 50.625H19.575C13.9045 50.625 11.0692 50.625 8.90335 49.5214C6.99821 48.5507 5.44928 47.0018 4.47856 45.0967C3.375 42.9308 3.375 40.0955 3.375 34.425V19.575Z" fill="url(#paint0_linear_651_948)"/>
<path d="M40.9645 16.92C38.41 14.76 35.3446 13.68 32.1089 13.5L31.5981 14.04C34.4931 14.76 37.0476 16.2 39.4318 18.18C36.5367 16.56 33.301 15.48 29.8951 15.12C28.8733 14.94 28.0218 14.94 27 14.94C25.9782 14.94 25.1267 14.94 24.1049 15.12C20.699 15.48 17.4633 16.56 14.5682 18.18C16.9524 16.2 19.5069 14.76 22.4019 14.04L21.8911 13.5C18.6554 13.68 15.59 14.76 13.0356 16.92C10.1405 22.68 8.6078 29.16 8.4375 35.82C10.992 38.7 14.5682 40.5 18.3148 40.5C18.3148 40.5 19.5069 39.06 20.3584 37.8C18.1445 37.26 16.1009 36 14.7385 34.02C15.9306 34.74 17.1227 35.46 18.3148 36C19.8475 36.72 21.3802 37.08 22.9128 37.44C24.2752 37.62 25.6376 37.8 27 37.8C28.3624 37.8 29.7248 37.62 31.0872 37.44C32.6198 37.08 34.1525 36.72 35.6852 36C36.8773 35.46 38.0694 34.74 39.2615 34.02C37.8991 36 35.8555 37.26 33.6416 37.8C34.4931 39.06 35.6852 40.5 35.6852 40.5C39.4318 40.5 43.008 38.7 45.5625 35.82C45.3922 29.16 43.8595 22.68 40.9645 16.92ZM21.3802 32.58C19.6772 32.58 18.1445 30.96 18.1445 28.98C18.1445 27 19.6772 25.38 21.3802 25.38C23.0831 25.38 24.6158 27 24.6158 28.98C24.6158 30.96 23.0831 32.58 21.3802 32.58ZM32.6198 32.58C30.9169 32.58 29.3842 30.96 29.3842 28.98C29.3842 27 30.9169 25.38 32.6198 25.38C34.3228 25.38 35.8555 27 35.8555 28.98C35.8555 30.96 34.3228 32.58 32.6198 32.58Z" fill="white"/>
<defs>
<linearGradient id="paint0_linear_651_948" x1="27" y1="3.375" x2="27" y2="50.625" gradientUnits="userSpaceOnUse">
<stop stop-color="#687EC9"/>
<stop offset="1" stop-color="#5971C3"/>
</linearGradient>
</defs>
</svg>