<svg width="55" height="55" viewBox="0 0 55 55" fill="none" xmlns="http://www.w3.org/2000/svg">
<path d="M4.15283 20.9528C4.15283 15.0723 4.15283 12.132 5.29726 9.88593C6.30393 7.91023 7.91023 6.30393 9.88593 5.29726C12.132 4.15283 15.0723 4.15283 20.9528 4.15283H34.6028C40.4834 4.15283 43.4237 4.15283 45.6697 5.29726C47.6454 6.30393 49.2517 7.91023 50.2584 9.88593C51.4028 12.132 51.4028 15.0723 51.4028 20.9528V34.6028C51.4028 40.4834 51.4028 43.4237 50.2584 45.6697C49.2517 47.6454 47.6454 49.2517 45.6697 50.2584C43.4237 51.4028 40.4834 51.4028 34.6028 51.4028H20.9528C15.0723 51.4028 12.132 51.4028 9.88593 50.2584C7.91023 49.2517 6.30393 47.6454 5.29726 45.6697C4.15283 43.4237 4.15283 40.4834 4.15283 34.6028V20.9528Z" fill="white"/>
<path d="M42.1028 10.9028H36.6162V18.8531H44.6444V13.1446C44.6466 13.1446 44.2477 11.1196 42.1028 10.9028Z" fill="#1967D2"/>
<path d="M36.6162 44.6138V44.6333V44.6507L44.6445 36.7004H44.5725L36.6162 44.6138Z" fill="#1967D2"/>
<path d="M44.6609 36.698V36.6267L44.5896 36.698H44.6609Z" fill="#FBBC05"/>
<path d="M44.6445 18.8552H36.6162V36.6332H44.6445V18.8552Z" fill="#FBBC05"/>
<path d="M44.5725 36.7004H36.6162V44.6138L44.5725 36.7004Z" fill="#EA4335"/>
<path d="M36.6162 36.698H44.5725L44.6445 36.6267H36.6162V36.698Z" fill="#EA4335"/>
<path d="M36.6162 44.63H36.6357V44.6106L36.6162 44.63Z" fill="#34A853"/>
<path d="M18.7498 36.6267V44.6311H36.6046L36.6242 36.6267H18.7498Z" fill="#34A853"/>
<path d="M36.6357 36.6983V36.6267L36.6162 44.6311L36.6357 44.6116V36.6983Z" fill="#34A853"/>
<path d="M10.9028 36.6267V42.1921C10.9748 43.9981 12.9279 44.6311 12.9279 44.6311H18.7501V36.6267H10.9028Z" fill="#188038"/>
<path d="M18.7501 18.8531H36.6246V10.9028H13.1546C13.1546 10.9028 11.0467 11.1196 10.9028 13.3592V36.6311H18.7501V18.8531Z" fill="#4285F4"/>
<path d="M24.585 33.0314C24.1761 33.0314 23.7817 32.9782 23.402 32.8716C23.032 32.7651 22.6912 32.6053 22.3797 32.3923C22.0681 32.1695 21.7906 31.8936 21.5472 31.5643C21.3135 31.235 21.1334 30.8525 21.0068 30.4168L22.8032 29.705C22.9298 30.1892 23.144 30.5572 23.4458 30.809C23.7477 31.0511 24.1274 31.1721 24.585 31.1721C24.7895 31.1721 24.9842 31.143 25.1692 31.0849C25.3542 31.0172 25.5148 30.9252 25.6511 30.809C25.7874 30.6927 25.8946 30.5572 25.9724 30.4022C26.0601 30.2376 26.1039 30.0536 26.1039 29.8502C26.1039 29.4241 25.9432 29.0901 25.6219 28.848C25.3104 28.6059 24.8771 28.4848 24.3221 28.4848H23.4604V26.7562H24.2491C24.4438 26.7562 24.6337 26.732 24.8187 26.6836C25.0037 26.6352 25.1643 26.5625 25.3006 26.4657C25.4467 26.3592 25.5586 26.2284 25.6365 26.0735C25.7242 25.9089 25.768 25.72 25.768 25.507C25.768 25.1777 25.6511 24.9114 25.4175 24.7081C25.1838 24.495 24.8674 24.3885 24.4682 24.3885C24.0398 24.3885 23.7087 24.5047 23.475 24.7371C23.2511 24.9598 23.0953 25.2116 23.0077 25.4925L21.2551 24.7807C21.3427 24.5386 21.4742 24.2917 21.6494 24.0399C21.8247 23.7784 22.0438 23.546 22.3067 23.3426C22.5793 23.1296 22.8957 22.9601 23.256 22.8342C23.6162 22.6986 24.03 22.6309 24.4974 22.6309C24.9745 22.6309 25.4077 22.6986 25.7972 22.8342C26.1964 22.9698 26.5372 23.1586 26.8195 23.4007C27.1019 23.6331 27.3209 23.914 27.4767 24.2432C27.6325 24.5628 27.7104 24.9114 27.7104 25.2891C27.7104 25.5796 27.6715 25.8411 27.5936 26.0735C27.5254 26.3059 27.4329 26.5141 27.3161 26.6981C27.1992 26.8821 27.0629 27.0419 26.9071 27.1775C26.7611 27.3034 26.6102 27.405 26.4544 27.4825V27.5987C26.9217 27.7827 27.3063 28.0781 27.6082 28.4848C27.9197 28.8915 28.0755 29.4048 28.0755 30.0246C28.0755 30.4603 27.9928 30.8622 27.8272 31.2302C27.6617 31.5885 27.4232 31.9032 27.1116 32.1744C26.8098 32.4455 26.4447 32.6537 26.0163 32.799C25.5879 32.9539 25.1108 33.0314 24.585 33.0314Z" fill="#4285F4"/>
<path d="M31.5632 32.799V25.1003L29.796 25.8411L29.095 24.2287L32.0306 22.8633H33.4764V32.799H31.5632Z" fill="#4285F4"/>
</svg>
