<svg xmlns:xlink="http://www.w3.org/1999/xlink" xmlns="http://www.w3.org/2000/svg" width="54" height="54" viewBox="0 0 54 54" fill="none">
<path d="M3.375 20.175C3.375 14.2944 3.375 11.3542 4.51943 9.1081C5.5261 7.1324 7.1324 5.5261 9.1081 4.51943C11.3542 3.375 14.2944 3.375 20.175 3.375H33.825C39.7055 3.375 42.6458 3.375 44.8919 4.51943C46.8676 5.5261 48.4739 7.1324 49.4806 9.1081C50.625 11.3542 50.625 14.2944 50.625 20.175V33.825C50.625 39.7055 50.625 42.6458 49.4806 44.8919C48.4739 46.8676 46.8676 48.4739 44.8919 49.4806C42.6458 50.625 39.7056 50.625 33.825 50.625H20.175C14.2944 50.625 11.3542 50.625 9.1081 49.4806C7.1324 48.4739 5.5261 46.8676 4.51943 44.8919C3.375 42.6458 3.375 39.7056 3.375 33.825V20.175Z" fill="white"/>
<path d="M13.5 36.3291V43.0686C13.5 44.4426 14.6254 45.5562 16.0115 45.5562H22.7062V36.3291H13.5Z" fill="#188038"/>
<path d="M31.2979 45.5583H37.9863C39.3724 45.5583 40.4978 44.4447 40.4978 43.0707V36.3291H31.2979V45.5583Z" fill="#1967D2"/>
<path d="M31.2939 36.3291H22.7021V45.5583H31.2939V36.3291Z" fill="#34A853"/>
<path d="M16.0115 8.4375C14.6254 8.4375 13.5 9.55112 13.5 10.9251V36.3296H22.7062V17.7349H31.298V8.4375H16.0115Z" fill="#FBBC05"/>
<path d="M40.4978 17.7354H31.2979V36.3301H40.4978V17.7354Z" fill="#4285F4"/>
<path d="M31.2979 17.7349H40.4958L31.2979 8.4375V17.7349Z" fill="#EA4335"/>
</svg>