<svg xmlns:xlink="http://www.w3.org/1999/xlink" xmlns="http://www.w3.org/2000/svg" width="55" height="55" viewBox="0 0 55 55" fill="none">
<path d="M15.2538 33.4748C15.2538 35.9725 13.2135 38.0129 10.7158 38.0129C8.2181 38.0129 6.17773 35.9725 6.17773 33.4748C6.17773 30.9771 8.2181 28.9368 10.7158 28.9368H15.2538V33.4748Z" fill="#E01E5A"/>
<path d="M17.5408 33.476C17.5408 30.9783 19.5811 28.938 22.0788 28.938C24.5765 28.938 26.6169 30.9783 26.6169 33.476V44.8388C26.6169 47.3364 24.5765 49.3768 22.0788 49.3768C19.5811 49.3768 17.5408 47.3364 17.5408 44.8388V33.476Z" fill="#E01E5A"/>
<path d="M22.0788 15.2538C19.5811 15.2538 17.5408 13.2135 17.5408 10.7158C17.5408 8.2181 19.5811 6.17773 22.0788 6.17773C24.5765 6.17773 26.6169 8.2181 26.6169 10.7158V15.2538H22.0788Z" fill="#36C5F0"/>
<path d="M22.0785 17.5408C24.5762 17.5408 26.6165 19.5811 26.6165 22.0788C26.6165 24.5765 24.5762 26.6169 22.0785 26.6169H10.7158C8.2181 26.6169 6.17773 24.5765 6.17773 22.0788C6.17773 19.5811 8.2181 17.5408 10.7158 17.5408H22.0785Z" fill="#36C5F0"/>
<path d="M40.301 22.0788C40.301 19.5811 42.3414 17.5408 44.8391 17.5408C47.3368 17.5408 49.3771 19.5811 49.3771 22.0788C49.3771 24.5765 47.3368 26.6169 44.8391 26.6169H40.301V22.0788Z" fill="#2EB67D"/>
<path d="M38.0153 22.0785C38.0153 24.5762 35.9749 26.6165 33.4773 26.6165C30.9796 26.6165 28.9392 24.5762 28.9392 22.0785V10.7158C28.9392 8.2181 30.9796 6.17773 33.4773 6.17773C35.9749 6.17773 38.0153 8.2181 38.0153 10.7158V22.0785Z" fill="#2EB67D"/>
<path d="M33.476 40.3035C35.9737 40.3035 38.0141 42.3438 38.0141 44.8415C38.0141 47.3392 35.9737 49.3796 33.476 49.3796C30.9783 49.3796 28.938 47.3392 28.938 44.8415V40.3035H33.476Z" fill="#ECB22E"/>
<path d="M33.4768 38.0129C30.9791 38.0129 28.9387 35.9725 28.9387 33.4748C28.9387 30.9771 30.9791 28.9368 33.4768 28.9368H44.8395C47.3372 28.9368 49.3775 30.9771 49.3775 33.4748C49.3775 35.9725 47.3372 38.0129 44.8395 38.0129H33.4768Z" fill="#ECB22E"/>
</svg>