<svg xmlns:xlink="http://www.w3.org/1999/xlink" xmlns="http://www.w3.org/2000/svg" width="54" height="54" viewBox="0 0 54 54" fill="none">
<path d="M52.0712 21.7967L51.9983 21.6104L44.9405 3.19104C44.7969 2.83003 44.5426 2.52378 44.2142 2.31624C43.8855 2.11222 43.5022 2.01396 43.1159 2.03472C42.7296 2.05548 42.359 2.19427 42.0542 2.43234C41.7527 2.67724 41.5339 3.00909 41.4278 3.38274L36.6623 17.9627H17.3654L12.5999 3.38274C12.4965 3.00706 12.2773 2.67354 11.9735 2.42964C11.6686 2.19157 11.298 2.05278 10.9117 2.03202C10.5254 2.01126 10.1421 2.10952 9.81346 2.31354C9.48575 2.52192 9.23172 2.8279 9.08716 3.18834L2.01586 21.5996L1.94566 21.7859C0.929657 24.4406 0.804248 27.3536 1.58834 30.0858C2.37243 32.8179 4.02352 35.2211 6.29266 36.9329L6.31696 36.9518L6.38176 36.9977L17.1332 45.0491L22.4522 49.0748L25.6922 51.521C26.0711 51.8088 26.5339 51.9646 27.0098 51.9646C27.4856 51.9646 27.9484 51.8088 28.3274 51.521L31.5674 49.0748L36.8864 45.0491L47.7026 36.9491L47.7296 36.9275C49.9936 35.2154 51.6409 32.8147 52.4238 30.0862C53.2067 27.3577 53.0829 24.4489 52.0712 21.7967Z" fill="#E24329"/>
<path d="M52.0726 21.7967L51.9997 21.6104C48.5607 22.3162 45.3201 23.7729 42.5092 25.8764L27.0085 37.5971C32.287 41.5904 36.8824 45.0599 36.8824 45.0599L47.6986 36.9599L47.7256 36.9383C49.9929 35.2261 51.6427 32.8239 52.4267 30.0931C53.2107 27.3623 53.0864 24.4507 52.0726 21.7967Z" fill="#FC6D26"/>
<path d="M17.1355 45.06L22.4545 49.0857L25.6945 51.5319C26.0735 51.8196 26.5363 51.9754 27.0121 51.9754C27.4879 51.9754 27.9507 51.8196 28.3297 51.5319L31.5697 49.0857L36.8887 45.06C36.8887 45.06 32.2879 41.5797 27.0094 37.5972C21.7309 41.5797 17.1355 45.06 17.1355 45.06Z" fill="#FCA326"/>
<path d="M11.5037 25.8767C8.6951 23.7689 5.45513 22.3084 2.01586 21.5999L1.94566 21.7862C0.929657 24.4408 0.804248 27.3538 1.58834 30.086C2.37243 32.8181 4.02352 35.2213 6.29266 36.9332L6.31696 36.9521L6.38176 36.998L17.1332 45.0494C17.1332 45.0494 21.7232 41.5799 27.0071 37.5866L11.5037 25.8767Z" fill="#FC6D26"/>
</svg>