<svg xmlns:xlink="http://www.w3.org/1999/xlink" xmlns="http://www.w3.org/2000/svg" width="54" height="54" viewBox="0 0 54 54" fill="none">
<path fill-rule="evenodd" clip-rule="evenodd" d="M8.21866 37.6672C7.79979 38.3781 7.32937 39.203 6.92983 39.8602C6.57222 40.4891 6.7642 41.3003 7.36159 41.6844L15.7389 47.0495C16.033 47.2385 16.3876 47.2966 16.7233 47.2109C17.0589 47.1251 17.3474 46.9027 17.5239 46.5935C17.859 46.01 18.2908 45.2522 18.7612 44.4407C22.0799 38.7402 25.418 39.4377 31.4368 42.4288L39.7432 46.5399C40.0578 46.6957 40.4196 46.7123 40.7462 46.586C41.0728 46.4596 41.3363 46.2011 41.4767 45.8692L45.4656 36.4801C45.7474 35.8096 45.4607 35.0277 44.8212 34.723C43.0684 33.8646 39.5821 32.1545 36.4438 30.5784C25.1538 24.8712 15.5585 25.2401 8.21866 37.6672Z" fill="url(#paint0_linear_651_1212)"/>
<path fill-rule="evenodd" clip-rule="evenodd" d="M45.779 16.3612C46.1978 15.6503 46.6683 14.8254 47.0678 14.1682C47.4254 13.5392 47.2334 12.7281 46.636 12.344L38.2587 6.97881C37.9622 6.77101 37.5962 6.70066 37.2479 6.78459C36.8997 6.86851 36.6006 7.09916 36.4221 7.42144C36.087 8.0049 35.6553 8.76274 35.1849 9.57422C31.8661 15.2747 28.5281 14.5772 22.5093 11.5862L14.2286 7.49521C13.914 7.33938 13.5522 7.32274 13.2256 7.44908C12.8991 7.57543 12.6355 7.834 12.4952 8.16586L8.50626 17.5549C8.22443 18.2255 8.51119 19.0074 9.15067 19.312C10.9035 20.1704 14.3897 21.8806 17.528 23.4566C28.8439 29.1571 38.4391 28.7748 45.779 16.3612Z" fill="url(#paint1_linear_651_1212)"/>
<defs>
<linearGradient id="paint0_linear_651_1212" x1="45.24" y1="49.8193" x2="35.2123" y2="27.7143" gradientUnits="userSpaceOnUse">
<stop offset="0.18" stop-color="#0052CC"/>
<stop offset="1" stop-color="#2684FF"/>
</linearGradient>
<linearGradient id="paint1_linear_651_1212" x1="8.75758" y1="4.20233" x2="18.801" y2="26.3175" gradientUnits="userSpaceOnUse">
<stop offset="0.18" stop-color="#0052CC"/>
<stop offset="1" stop-color="#2684FF"/>
</linearGradient>
</defs>
</svg>