<svg xmlns:xlink="http://www.w3.org/1999/xlink" width="64" height="64" viewBox="0 0 40 40" fill="none" xmlns="http://www.w3.org/2000/svg"><rect width="40" height="40" rx="10" fill="#55ACEE"></rect><mask id="mask0_920_2751" maskUnits="userSpaceOnUse" x="8" y="10" width="24" height="20" style="mask-type: luminance;" fill="none"><path d="M31.9309 10.2326H8V29.6807H31.9309V10.2326Z" fill="#FFFFFF"></path></mask><g mask="url(#mask0_920_2751)" fill="none"><path d="M31.9309 12.5347C31.0506 12.9253 30.1043 13.1891 29.1112 13.3078C30.1248 12.7002 30.9034 11.7381 31.27 10.5915C30.3211 11.1543 29.2704 11.5628 28.152 11.7829C27.2565 10.8287 25.9806 10.2326 24.5684 10.2326C21.857 10.2326 19.6586 12.4307 19.6586 15.1421C19.6586 15.5269 19.702 15.9017 19.7858 16.261C15.7053 16.0563 12.0876 14.1016 9.66603 11.1312C9.24342 11.8563 9.00123 12.6996 9.00123 13.5994C9.00123 15.3028 9.86801 16.8056 11.1854 17.686C10.3806 17.6605 9.62356 17.4396 8.96163 17.0719C8.96107 17.0924 8.96107 17.113 8.96107 17.1337C8.96107 19.5124 10.6535 21.4967 12.8995 21.948C12.4876 22.0602 12.0538 22.1202 11.606 22.1202C11.2897 22.1202 10.9822 22.0893 10.6823 22.032C11.3071 23.9826 13.1203 25.4021 15.2688 25.4416C13.5885 26.7585 11.4716 27.5434 9.17118 27.5434C8.77489 27.5434 8.38409 27.5201 8 27.4747C10.1728 28.8679 12.7535 29.6807 15.5262 29.6807C24.5569 29.6807 29.4955 22.1995 29.4955 15.7113C29.4955 15.4985 29.4906 15.2868 29.4813 15.0761C30.4404 14.384 31.2727 13.5194 31.9309 12.5347Z" fill="#FFFFFF"></path></g></svg>