<svg xmlns:xlink="http://www.w3.org/1999/xlink" xmlns="http://www.w3.org/2000/svg" width="54" height="54" viewBox="0 0 54 54" fill="none">
<path d="M3.375 20.175C3.375 14.2944 3.375 11.3542 4.51943 9.1081C5.5261 7.1324 7.1324 5.5261 9.1081 4.51943C11.3542 3.375 14.2944 3.375 20.175 3.375H33.825C39.7055 3.375 42.6458 3.375 44.8919 4.51943C46.8676 5.5261 48.4739 7.1324 49.4806 9.1081C50.625 11.3542 50.625 14.2944 50.625 20.175V33.825C50.625 39.7055 50.625 42.6458 49.4806 44.8919C48.4739 46.8676 46.8676 48.4739 44.8919 49.4806C42.6458 50.625 39.7056 50.625 33.825 50.625H20.175C14.2944 50.625 11.3542 50.625 9.1081 49.4806C7.1324 48.4739 5.5261 46.8676 4.51943 44.8919C3.375 42.6458 3.375 39.7056 3.375 33.825V20.175Z" fill="white"/>
<path d="M37.207 14.3833L27.1038 22.268L16.7695 14.3833V14.3854L16.782 14.3961V25.4368L26.9872 33.492L37.207 25.7479V14.3833Z" fill="#EA4335"/>
<path d="M39.8701 12.4645L37.2168 14.3824V25.7471L45.5658 19.337V15.4756C45.5658 15.4756 44.5523 9.9606 39.8701 12.4645Z" fill="#FBBC05"/>
<path d="M37.2168 25.747V40.4871H43.6159C43.6159 40.4871 45.4367 40.2996 45.5678 38.224V19.3369L37.2168 25.747Z" fill="#34A853"/>
<path d="M16.7825 40.4993V25.4352L16.7695 25.4246L16.7825 40.4993Z" fill="#C5221F"/>
<path d="M16.774 14.3851L14.1353 12.4779C9.45303 9.97397 8.4375 15.4869 8.4375 15.4869V19.3483L16.774 25.4259V14.3851Z" fill="#C5221F"/>
<path d="M16.7695 14.385V25.4257L16.7825 25.4364V14.3957L16.7695 14.385Z" fill="#C5221F"/>
<path d="M8.4375 19.3501V38.2372C8.56652 40.3149 10.3895 40.5003 10.3895 40.5003H16.7885L16.774 25.4256L8.4375 19.3501Z" fill="#4285F4"/>
</svg>