<svg xmlns:xlink="http://www.w3.org/1999/xlink" xmlns="http://www.w3.org/2000/svg" width="54" height="54" viewBox="0 0 54 54" fill="none">
<g clip-path="url(#clip0_651_1207)">
<path d="M0.661721 33.2223C0.541571 32.7101 1.15176 32.3875 1.52377 32.7595L21.2405 52.4762C21.6125 52.8482 21.2899 53.4584 20.7777 53.3383C10.8278 51.0042 2.99581 43.1722 0.661721 33.2223ZM0.00102133 25.3201C-0.0085063 25.4731 0.0490123 25.6225 0.15739 25.7308L28.2692 53.8426C28.3775 53.951 28.5269 54.0086 28.6799 53.999C29.9593 53.9193 31.2145 53.7506 32.4396 53.499C32.8524 53.4142 32.9958 52.907 32.6978 52.609L1.39101 21.3022C1.09301 21.0042 0.585781 21.1476 0.500999 21.5604C0.249405 22.7855 0.0807062 24.0407 0.00102133 25.3201ZM2.2739 16.0409C2.184 16.2428 2.22979 16.4786 2.38603 16.6349L37.3651 51.614C37.5214 51.7702 37.7572 51.816 37.9591 51.7261C38.9236 51.2965 39.8583 50.8121 40.7593 50.2768C41.0574 50.0996 41.1034 49.6899 40.8582 49.4448L4.55526 13.1418C4.31005 12.8966 3.90039 12.9426 3.72326 13.2407C3.18794 14.1417 2.7035 15.0764 2.2739 16.0409ZM6.8357 9.75996C6.63584 9.56011 6.62348 9.23956 6.81178 9.02875C11.7609 3.48803 18.9602 0 26.974 0C41.9001 0 54 12.0999 54 27.026C54 35.0398 50.512 42.2391 44.9713 47.1882C44.7605 47.3765 44.4399 47.3642 44.24 47.1643L6.8357 9.75996Z" fill="white"/>
</g>
<defs>
<clipPath id="clip0_651_1207">
<rect width="54" height="54" fill="white"/>
</clipPath>
</defs>
</svg>