<svg xmlns:xlink="http://www.w3.org/1999/xlink" xmlns="http://www.w3.org/2000/svg" width="54" height="54" viewBox="0 0 54 54" fill="none">
<path d="M27 3.375C13.9693 3.375 3.375 13.9693 3.375 27C3.375 40.0307 13.9693 50.625 27 50.625C40.0307 50.625 50.625 40.0307 50.625 27C50.625 13.9693 40.0307 3.375 27 3.375Z" fill="url(#paint0_radial_652_1516)"/>
<path d="M34.6281 26.9006C31.3848 26.9006 28.756 29.567 28.756 32.8564C28.756 36.1459 31.3848 38.8125 34.6281 38.8125C37.871 38.8125 40.5 36.1459 40.5 32.8564C40.5 29.567 37.871 26.9006 34.6281 26.9006ZM19.372 26.9011C16.1291 26.9011 13.5 29.567 13.5 32.8567C13.5 36.1459 16.1291 38.8125 19.372 38.8125C22.6151 38.8125 25.2443 36.1459 25.2443 32.8567C25.2443 29.567 22.6151 26.9011 19.372 26.9011ZM32.8718 19.4557C32.8718 22.745 30.2431 25.4121 27.0002 25.4121C23.7569 25.4121 21.128 22.745 21.128 19.4557C21.128 16.1666 23.7569 13.5 27.0002 13.5C30.2431 13.5 32.8718 16.1666 32.8718 19.4557Z" fill="white"/>
<defs>
<radialGradient id="paint0_radial_652_1516" cx="0" cy="0" r="1" gradientUnits="userSpaceOnUse" gradientTransform="translate(27 29.1982) scale(31.3094)">
<stop stop-color="#FFB900"/>
<stop offset="0.6" stop-color="#F95D8F"/>
<stop offset="0.9991" stop-color="#F95353"/>
</radialGradient>
</defs>
</svg>