<svg xmlns:xlink="http://www.w3.org/1999/xlink" xmlns="http://www.w3.org/2000/svg" width="54" height="54" viewBox="0 0 54 54" fill="none">
<path d="M3.375 19.575C3.375 13.9045 3.375 11.0692 4.47856 8.90335C5.44928 6.99821 6.99821 5.44928 8.90335 4.47856C11.0692 3.375 13.9045 3.375 19.575 3.375H34.425C40.0955 3.375 42.9308 3.375 45.0967 4.47856C47.0018 5.44928 48.5507 6.99821 49.5214 8.90335C50.625 11.0692 50.625 13.9045 50.625 19.575V34.425C50.625 40.0955 50.625 42.9308 49.5214 45.0967C48.5507 47.0018 47.0018 48.5507 45.0967 49.5214C42.9308 50.625 40.0955 50.625 34.425 50.625H19.575C13.9045 50.625 11.0692 50.625 8.90335 49.5214C6.99821 48.5507 5.44928 47.0018 4.47856 45.0967C3.375 42.9308 3.375 40.0955 3.375 34.425V19.575Z" fill="#4087FC"/>
<path d="M13.95 16.875C12.7695 16.875 11.8125 17.9543 11.8125 19.2857V30.9777C11.8125 34.3728 14.2528 37.125 17.2631 37.125L29.925 37.0045C31.1055 37.0045 32.0625 35.9252 32.0625 34.5938V22.7813C32.0625 19.3862 29.1665 16.875 26.1562 16.875L13.95 16.875Z" fill="white"/>
<path d="M34.9518 21.4778C34.188 22.2331 33.75 23.3231 33.75 24.4688V29.3613C33.75 30.507 34.188 31.597 34.9518 32.3523L39.7049 36.5385C40.672 37.4948 42.1875 36.7202 42.1875 35.2696V18.7906C42.1875 17.34 40.672 16.5654 39.7049 17.5217L34.9518 21.4778Z" fill="white"/>
</svg>