<svg xmlns:xlink="http://www.w3.org/1999/xlink" xmlns="http://www.w3.org/2000/svg" width="54" height="54" viewBox="0 0 54 54" fill="none">
<path fill-rule="evenodd" clip-rule="evenodd" d="M18.7626 23.7663C18.5178 23.4458 18.1236 23.2767 17.7229 23.3202C17.3223 23.3638 16.9735 23.6137 16.8033 23.9793L6.87525 43.8431C6.69136 44.2112 6.71102 44.6483 6.92721 44.9984C7.14339 45.3484 7.52528 45.5616 7.93651 45.5616H21.7608C22.2131 45.5721 22.6292 45.3148 22.822 44.9051C25.8041 38.7387 23.9968 29.3626 18.7626 23.7663Z" fill="url(#paint0_linear_651_1214)"/>
<path fill-rule="evenodd" clip-rule="evenodd" d="M26.0475 5.69973C21.0148 13.4488 20.434 23.278 24.5189 31.5667L31.1837 44.9057C31.3847 45.308 31.7955 45.5621 32.2449 45.5622H46.0667C46.4779 45.5621 46.8598 45.349 47.076 44.999C47.2922 44.6489 47.3118 44.2118 47.1279 43.8437C47.1279 43.8437 28.533 6.62324 28.0657 5.69228C27.8772 5.3056 27.4842 5.06092 27.0542 5.06251C26.6243 5.0641 26.2331 5.31167 26.0475 5.69973Z" fill="#2684FF"/>
<defs>
<linearGradient id="paint0_linear_651_1214" x1="24.2035" y1="26.8318" x2="10.2782" y2="41.78" gradientUnits="userSpaceOnUse">
<stop stop-color="#0052CC"/>
<stop offset="0.923" stop-color="#2684FF"/>
</linearGradient>
</defs>
</svg>