<svg xmlns:xlink="http://www.w3.org/1999/xlink" xmlns="http://www.w3.org/2000/svg" width="55" height="55" viewBox="0 0 55 55" fill="none">
<path d="M18.8395 44.5225C18.8395 44.7402 18.5891 44.9144 18.2734 44.9144C17.9141 44.9471 17.6637 44.7729 17.6637 44.5225C17.6637 44.3047 17.9141 44.1305 18.2298 44.1305C18.5565 44.0979 18.8395 44.2721 18.8395 44.5225ZM15.4536 44.0326C15.3774 44.2503 15.5952 44.5007 15.9218 44.566C16.2048 44.6749 16.5315 44.566 16.5968 44.3483C16.6621 44.1305 16.4553 43.8801 16.1286 43.7822C15.8456 43.706 15.5298 43.8148 15.4536 44.0326ZM20.2657 43.8475C19.95 43.9237 19.7323 44.1305 19.7649 44.381C19.7976 44.5987 20.0807 44.7402 20.4073 44.664C20.723 44.5878 20.9407 44.381 20.9081 44.1632C20.8754 43.9564 20.5815 43.8148 20.2657 43.8475ZM27.4294 2.12817C12.329 2.12817 0.777832 13.5923 0.777832 28.6927C0.777832 40.7664 8.37703 51.0983 19.2315 54.7346C20.625 54.985 21.1149 54.1249 21.1149 53.4172C21.1149 52.7422 21.0823 49.0188 21.0823 46.7326C21.0823 46.7326 13.4613 48.3656 11.8609 43.4882C11.8609 43.4882 10.6198 40.3201 8.83428 39.5035C8.83428 39.5035 6.34114 37.7943 9.00848 37.8269C9.00848 37.8269 11.7194 38.0447 13.2109 40.6358C15.5952 44.8382 19.5907 43.6297 21.1476 42.9112C21.398 41.1693 22.1057 39.9608 22.8895 39.2422C16.8036 38.5672 10.6633 37.6854 10.6633 27.212C10.6633 24.2181 11.4907 22.7157 13.2327 20.7995C12.9496 20.0919 12.0242 17.1741 13.5157 13.4072C15.7911 12.6995 21.0278 16.3467 21.0278 16.3467C23.2053 15.737 25.546 15.4213 27.8649 15.4213C30.1839 15.4213 32.5246 15.737 34.702 16.3467C34.702 16.3467 39.9387 12.6886 42.2141 13.4072C43.7057 17.185 42.7803 20.0919 42.4972 20.7995C44.2391 22.7265 45.3061 24.229 45.3061 27.212C45.3061 37.7181 38.8936 38.5564 32.8077 39.2422C33.8093 40.1023 34.6585 41.7354 34.6585 44.2939C34.6585 47.9628 34.6258 52.5027 34.6258 53.3955C34.6258 54.1031 35.1266 54.9632 36.5093 54.7128C47.3964 51.0983 54.7778 40.7664 54.7778 28.6927C54.7778 13.5923 42.5298 2.12817 27.4294 2.12817ZM11.3601 39.6777C11.2186 39.7866 11.2512 40.037 11.4363 40.2439C11.6105 40.4181 11.8609 40.4943 12.0024 40.3527C12.144 40.2439 12.1113 39.9935 11.9262 39.7866C11.752 39.6124 11.5016 39.5362 11.3601 39.6777ZM10.1843 38.7959C10.1081 38.9374 10.2169 39.1116 10.4347 39.2205C10.6089 39.3293 10.8266 39.2967 10.9028 39.1443C10.979 39.0027 10.8702 38.8285 10.6524 38.7197C10.4347 38.6543 10.2605 38.687 10.1843 38.7959ZM13.7117 42.6717C13.5375 42.8132 13.6028 43.1398 13.8532 43.3467C14.1036 43.5971 14.4194 43.6297 14.5609 43.4555C14.7024 43.314 14.6371 42.9874 14.4194 42.7805C14.1798 42.5301 13.8532 42.4975 13.7117 42.6717ZM12.4706 41.0713C12.2964 41.1801 12.2964 41.4632 12.4706 41.7136C12.6448 41.964 12.9387 42.0729 13.0803 41.964C13.2544 41.8225 13.2544 41.5394 13.0803 41.289C12.9278 41.0386 12.6448 40.9297 12.4706 41.0713Z" fill="white"/>
</svg>