<svg xmlns:xlink="http://www.w3.org/1999/xlink" xmlns="http://www.w3.org/2000/svg" width="54" height="54" viewBox="0 0 54 54" fill="none">
<g clip-path="url(#clip0_651_960)">
<mask id="mask0_651_960" style="mask-type:alpha" maskUnits="userSpaceOnUse" x="10" y="5" width="33" height="44">
<path d="M30.7781 5.14355H13.8891C12.2499 5.14355 10.9087 6.48474 10.9087 8.12397V45.8758C10.9087 47.5151 12.2499 48.8563 13.8891 48.8563H39.7193C41.3586 48.8563 42.6997 47.5151 42.6997 45.8758V17.0652L30.7781 5.14355Z" fill="white"/>
</mask>
<g mask="url(#mask0_651_960)">
<path d="M30.7781 5.14355H13.8891C12.2499 5.14355 10.9087 6.48474 10.9087 8.12397V45.8758C10.9087 47.5151 12.2499 48.8563 13.8891 48.8563H39.7193C41.3586 48.8563 42.6997 47.5151 42.6997 45.8758V17.0652L35.7454 12.0978L30.7781 5.14355Z" fill="#0F9D58"/>
</g>
<mask id="mask1_651_960" style="mask-type:alpha" maskUnits="userSpaceOnUse" x="10" y="5" width="33" height="44">
<path d="M30.7781 5.14355H13.8891C12.2499 5.14355 10.9087 6.48474 10.9087 8.12397V45.8758C10.9087 47.5151 12.2499 48.8563 13.8891 48.8563H39.7193C41.3586 48.8563 42.6997 47.5151 42.6997 45.8758V17.0652L30.7781 5.14355Z" fill="white"/>
</mask>
<g mask="url(#mask1_651_960)">
<path d="M18.8533 26.5029V40.9082H34.7488V26.5029H18.8533ZM25.8076 38.9213H20.8402V36.4376H25.8076V38.9213ZM25.8076 34.9474H20.8402V32.4637H25.8076V34.9474ZM25.8076 30.9735H20.8402V28.4899H25.8076V30.9735ZM32.7619 38.9213H27.7945V36.4376H32.7619V38.9213ZM32.7619 34.9474H27.7945V32.4637H32.7619V34.9474ZM32.7619 30.9735H27.7945V28.4899H32.7619V30.9735Z" fill="#F1F1F1"/>
</g>
<mask id="mask2_651_960" style="mask-type:alpha" maskUnits="userSpaceOnUse" x="10" y="5" width="33" height="44">
<path d="M30.7781 5.14355H13.8891C12.2499 5.14355 10.9087 6.48474 10.9087 8.12397V45.8758C10.9087 47.5151 12.2499 48.8563 13.8891 48.8563H39.7193C41.3586 48.8563 42.6997 47.5151 42.6997 45.8758V17.0652L30.7781 5.14355Z" fill="white"/>
</mask>
<g mask="url(#mask2_651_960)">
<path d="M31.6509 16.1934L42.7008 27.2408V17.0651L31.6509 16.1934Z" fill="url(#paint0_linear_651_960)"/>
</g>
<mask id="mask3_651_960" style="mask-type:alpha" maskUnits="userSpaceOnUse" x="10" y="5" width="33" height="44">
<path d="M30.7781 5.14355H13.8891C12.2499 5.14355 10.9087 6.48474 10.9087 8.12397V45.8758C10.9087 47.5151 12.2499 48.8563 13.8891 48.8563H39.7193C41.3586 48.8563 42.6997 47.5151 42.6997 45.8758V17.0652L30.7781 5.14355Z" fill="white"/>
</mask>
<g mask="url(#mask3_651_960)">
<path d="M30.7739 5.14355V14.0848C30.7739 15.7314 32.1076 17.0652 33.7543 17.0652H42.6956L30.7739 5.14355Z" fill="#87CEAC"/>
</g>
<mask id="mask4_651_960" style="mask-type:alpha" maskUnits="userSpaceOnUse" x="10" y="5" width="33" height="44">
<path d="M30.7781 5.14355H13.8891C12.2499 5.14355 10.9087 6.48474 10.9087 8.12397V45.8758C10.9087 47.5151 12.2499 48.8563 13.8891 48.8563H39.7193C41.3586 48.8563 42.6997 47.5151 42.6997 45.8758V17.0652L30.7781 5.14355Z" fill="white"/>
</mask>
<g mask="url(#mask4_651_960)">
<path d="M13.8891 5.14355C12.2499 5.14355 10.9087 6.48474 10.9087 8.12397V8.37233C10.9087 6.73311 12.2499 5.39192 13.8891 5.39192H30.7781V5.14355H13.8891Z" fill="white" fill-opacity="0.2"/>
</g>
<mask id="mask5_651_960" style="mask-type:alpha" maskUnits="userSpaceOnUse" x="10" y="5" width="33" height="44">
<path d="M30.7781 5.14355H13.8891C12.2499 5.14355 10.9087 6.48474 10.9087 8.12397V45.8758C10.9087 47.5151 12.2499 48.8563 13.8891 48.8563H39.7193C41.3586 48.8563 42.6997 47.5151 42.6997 45.8758V17.0652L30.7781 5.14355Z" fill="white"/>
</mask>
<g mask="url(#mask5_651_960)">
<path d="M39.7193 48.6076H13.8891C12.2499 48.6076 10.9087 47.2664 10.9087 45.6272V45.8756C10.9087 47.5148 12.2499 48.856 13.8891 48.856H39.7193C41.3586 48.856 42.6997 47.5148 42.6997 45.8756V45.6272C42.6997 47.2664 41.3586 48.6076 39.7193 48.6076Z" fill="#263238" fill-opacity="0.2"/>
</g>
<mask id="mask6_651_960" style="mask-type:alpha" maskUnits="userSpaceOnUse" x="10" y="5" width="33" height="44">
<path d="M30.7781 5.14355H13.8891C12.2499 5.14355 10.9087 6.48474 10.9087 8.12397V45.8758C10.9087 47.5151 12.2499 48.8563 13.8891 48.8563H39.7193C41.3586 48.8563 42.6997 47.5151 42.6997 45.8758V17.0652L30.7781 5.14355Z" fill="white"/>
</mask>
<g mask="url(#mask6_651_960)">
<path d="M33.7543 17.0654C32.1076 17.0654 30.7739 15.7316 30.7739 14.085V14.3333C30.7739 15.98 32.1076 17.3137 33.7543 17.3137H42.6956V17.0654H33.7543Z" fill="#263238" fill-opacity="0.1"/>
</g>
<path d="M30.7754 5.14355H13.8864C12.2472 5.14355 10.906 6.48474 10.906 8.12397V45.8758C10.906 47.5151 12.2472 48.8563 13.8864 48.8563H39.7167C41.3559 48.8563 42.6971 47.5151 42.6971 45.8758V17.0652L30.7754 5.14355Z" fill="url(#paint1_radial_651_960)"/>
</g>
<defs>
<linearGradient id="paint0_linear_651_960" x1="37.1764" y1="17.1419" x2="37.1764" y2="27.2423" gradientUnits="userSpaceOnUse">
<stop stop-color="#263238" stop-opacity="0.2"/>
<stop offset="1" stop-color="#263238" stop-opacity="0.02"/>
</linearGradient>
<radialGradient id="paint1_radial_651_960" cx="0" cy="0" r="1" gradientUnits="userSpaceOnUse" gradientTransform="translate(11.9132 6.01244) scale(51.2627 51.2627)">
<stop stop-color="white" stop-opacity="0.1"/>
<stop offset="1" stop-color="white" stop-opacity="0"/>
</radialGradient>
<clipPath id="clip0_651_960">
<rect width="33.3" height="45" fill="white" transform="translate(10.3501 4.5)"/>
</clipPath>
</defs>
</svg>