<svg xmlns:xlink="http://www.w3.org/1999/xlink" xmlns="http://www.w3.org/2000/svg" width="55" height="55" viewBox="0 0 55 55" fill="none">
<path fill-rule="evenodd" clip-rule="evenodd" d="M10.4236 50.0828L4.61966 42.8525C3.22324 41.1129 2.46533 38.9737 2.46533 36.772V10.5906C2.46533 7.29267 5.10388 4.55609 8.50778 4.32369L35.4258 2.48589C37.3814 2.35237 39.3251 2.87217 40.9315 3.95827L50.389 10.3526C52.082 11.4972 53.0903 13.3682 53.0903 15.365V45.1307C53.0903 48.3582 50.4959 51.0304 47.1632 51.2355L17.2872 53.0746C14.6277 53.2383 12.0571 52.1178 10.4236 50.0828Z" fill="white"/>
<path d="M19.759 23.6917V23.3489C19.759 22.48 20.4549 21.7594 21.3518 21.6995L27.8846 21.2634L36.9191 34.5673V22.8909L34.5937 22.5809V22.4181C34.5937 21.539 35.3055 20.8136 36.2138 20.7671L42.158 20.4626V21.318C42.158 21.7196 41.8594 22.0631 41.4501 22.1323L40.0197 22.3742V41.2838L38.2244 41.9012C36.7247 42.417 35.055 41.8649 34.1964 40.5693L25.4256 27.3341V39.9664L28.1252 40.483L28.0876 40.7334C27.9698 41.5178 27.2926 42.111 26.4734 42.1475L19.759 42.4463C19.6702 41.6029 20.3024 40.8483 21.1745 40.7566L22.0577 40.6639V23.8208L19.759 23.6917Z" fill="black"/>
<path fill-rule="evenodd" clip-rule="evenodd" d="M35.6667 5.78406L8.74869 7.62187C7.13631 7.73195 5.88647 9.02822 5.88647 10.5904V36.7718C5.88647 38.2396 6.39175 39.6657 7.32269 40.8255L13.1266 48.0558C14.065 49.2248 15.5417 49.8685 17.0695 49.7745L46.9455 47.9354C48.4768 47.8411 49.6688 46.6134 49.6688 45.1305V15.3648C49.6688 14.4474 49.2055 13.5877 48.4277 13.0618L38.9701 6.66749C38.0063 6.01583 36.8401 5.70395 35.6667 5.78406ZM10.0835 10.9988C9.70911 10.7216 9.88729 10.1442 10.3576 10.1104L35.8478 8.28212C36.6599 8.22386 37.467 8.44751 38.1238 8.91285L43.2382 12.5363C43.4323 12.6739 43.3413 12.9709 43.1009 12.9839L16.1069 14.452C15.2899 14.4965 14.4836 14.2565 13.834 13.7756L10.0835 10.9988ZM14.8407 19.0544C14.8407 18.1775 15.5492 17.4531 16.4552 17.4038L44.9955 15.8494C45.8784 15.8014 46.6217 16.4804 46.6217 17.3351V43.109C46.6217 43.9844 45.9157 44.708 45.0116 44.7594L16.6519 46.3731C15.6693 46.429 14.8407 45.6739 14.8407 44.7226V19.0544Z" fill="black"/>
</svg>