<svg xmlns:xlink="http://www.w3.org/1999/xlink" width="64" height="64" viewBox="0 0 40 40" fill="none" xmlns="http://www.w3.org/2000/svg"><rect width="40" height="40" rx="10" fill="#FFDD06"></rect><path d="M26.8709 13.5812L26.8562 13.5738L26.8195 13.5592C26.8268 13.5738 26.8489 13.5812 26.8709 13.5812Z" fill="#010202"></path><path d="M26.8712 13.574C26.864 13.574 26.864 13.574 26.8712 13.574V13.574Z" fill="#010202"></path><path d="M27.0902 15.2877L27.1196 15.273L27.1343 15.2583C27.1196 15.2657 27.1049 15.2804 27.0902 15.2877Z" fill="#010202"></path><path d="M26.9156 13.6183L26.8862 13.5889L26.8642 13.5816C26.8789 13.5963 26.8936 13.6109 26.9156 13.6183Z" fill="#010202"></path><path d="M20.0688 30.273C20.0467 30.2804 20.0247 30.295 20.01 30.3171L20.0247 30.3024C20.0467 30.2877 20.0614 30.2804 20.0688 30.273Z" fill="#010202"></path><path d="M24.0514 29.4858C24.0514 29.4638 24.0367 29.4638 24.044 29.5518C24.044 29.5445 24.044 29.5372 24.0514 29.5298C24.044 29.5225 24.044 29.5078 24.0514 29.4858Z" fill="#010202"></path><path d="M23.6343 30.273C23.6122 30.2803 23.5902 30.295 23.5755 30.317L23.5902 30.3023C23.6122 30.2876 23.6269 30.2803 23.6343 30.273Z" fill="#010202"></path><path d="M17.2708 30.4555C17.2562 30.4408 17.2341 30.4335 17.2121 30.4262C17.2267 30.4335 17.2488 30.4408 17.2561 30.4482L17.2708 30.4555Z" fill="#010202"></path><path d="M16.6496 29.8578C16.6496 29.8358 16.6422 29.8065 16.6275 29.7845C16.6349 29.8065 16.6422 29.8285 16.6496 29.8578Z" fill="#010202"></path><path d="M20.8732 19.087C20.0111 19.4589 19.0247 19.8746 17.7534 19.8746C17.22 19.8746 16.694 19.8017 16.1825 19.6558L17.0593 28.6689C17.0885 29.048 17.2639 29.3981 17.5415 29.6533C17.8192 29.9085 18.1845 30.0544 18.5644 30.0544C18.5644 30.0544 19.8138 30.12 20.2303 30.12C20.676 30.12 22.0203 30.0544 22.0203 30.0544C22.4003 30.0544 22.7656 29.9158 23.0432 29.6533C23.3209 29.3981 23.4962 29.048 23.5254 28.6689L24.468 18.7151C24.0442 18.5693 23.6204 18.4745 23.1455 18.4745C22.3126 18.4745 21.6477 18.7589 20.8732 19.087Z" fill="#FFFFFF"></path><path d="M13.4574 15.2514L13.4802 15.2741C13.4802 15.259 13.4726 15.2514 13.4574 15.2514Z" fill="#010202"></path><path d="M28.5297 14.4126L28.3982 13.7491C28.2813 13.1511 28.011 12.5823 27.3973 12.3708C27.2 12.3052 26.9735 12.2688 26.8274 12.1302C26.6739 11.9844 26.6301 11.7656 26.5936 11.5614C26.5278 11.1822 26.4693 10.803 26.4036 10.4238C26.3451 10.0957 26.3013 9.7311 26.1552 9.43941C25.9579 9.03835 25.5561 8.805 25.1542 8.65186C24.9496 8.57894 24.7377 8.51331 24.5259 8.45498C23.5249 8.19246 22.4728 8.09766 21.4426 8.03933C20.2078 7.9737 18.9657 7.98828 17.7309 8.09766C16.8103 8.17788 15.8459 8.27997 14.9764 8.60082C14.655 8.71749 14.3262 8.85604 14.0851 9.10397C13.7855 9.40295 13.6905 9.87694 13.9097 10.2488C14.0632 10.5186 14.3262 10.7082 14.6038 10.8322C14.9618 10.9926 15.3418 11.1166 15.729 11.1968C16.8103 11.4375 17.9209 11.525 19.0242 11.5687C20.2443 11.6198 21.4645 11.576 22.6847 11.452C22.9842 11.4156 23.2838 11.3791 23.5833 11.3354C23.934 11.2843 24.1605 10.8176 24.0582 10.5041C23.934 10.1176 23.5979 9.97174 23.2253 10.0301C23.1669 10.0374 23.1157 10.0447 23.0573 10.0519L23.0207 10.0592C22.8892 10.0738 22.765 10.0884 22.6335 10.103C22.3705 10.1322 22.1075 10.154 21.8371 10.1759C21.2453 10.2197 20.6462 10.2343 20.0471 10.2343C19.4626 10.2343 18.878 10.2197 18.2935 10.1759C18.0232 10.1613 17.7602 10.1395 17.4971 10.1103C17.3729 10.0957 17.256 10.0811 17.1391 10.0665L17.0222 10.0519H17.0003L16.8834 10.0374C16.6423 10.0009 16.4012 9.95715 16.1601 9.90611C16.1382 9.89882 16.1162 9.88423 16.1016 9.86965C16.087 9.85506 16.0797 9.82589 16.0797 9.80402C16.0797 9.78214 16.087 9.75297 16.1016 9.73839C16.1162 9.7238 16.1382 9.70922 16.1601 9.70193H16.1674C16.372 9.65817 16.5838 9.62171 16.7957 9.58525C16.8688 9.57067 16.9346 9.56338 17.0076 9.55609C17.1391 9.54879 17.2706 9.52692 17.4022 9.50504C18.5419 9.38837 19.689 9.34461 20.8361 9.38107C21.3914 9.39566 21.9467 9.43212 22.502 9.48316C22.6189 9.49775 22.7431 9.50504 22.86 9.51962C22.9038 9.52692 22.9477 9.53421 22.9988 9.53421L23.0938 9.54879C23.3641 9.58525 23.6272 9.6363 23.8975 9.69464C24.2921 9.78214 24.7962 9.81131 24.9715 10.2343C25.03 10.3728 25.0519 10.5186 25.0811 10.6645L25.1177 10.8468V10.8541C25.2127 11.2843 25.3003 11.7146 25.3953 12.1448C25.4026 12.174 25.4026 12.2104 25.3953 12.2396C25.388 12.2688 25.3734 12.3052 25.3588 12.3271C25.3369 12.3563 25.3149 12.3781 25.2857 12.3927C25.2565 12.4073 25.2273 12.4219 25.198 12.4219L25.0811 12.4365C24.9058 12.4583 24.7231 12.4802 24.5478 12.5021C24.1971 12.5386 23.8464 12.575 23.4957 12.6042C22.7942 12.6625 22.1001 12.699 21.3987 12.7209C21.0407 12.7282 20.6827 12.7354 20.3247 12.7354C18.9 12.7354 17.4825 12.6552 16.0724 12.4875C15.919 12.4729 15.7655 12.4511 15.6121 12.4292C15.729 12.4438 15.5244 12.4146 15.4879 12.4146C15.3929 12.4 15.2906 12.3854 15.1956 12.3708C14.8669 12.3198 14.5454 12.2615 14.2166 12.2104C13.822 12.1448 13.4494 12.1812 13.0914 12.3708C12.7992 12.5313 12.5653 12.7719 12.4119 13.0709C12.2585 13.3844 12.2146 13.7345 12.1416 14.0699C12.0758 14.4126 11.9662 14.7772 12.0101 15.1273C12.0977 15.8783 12.6238 16.4909 13.3837 16.6294C14.0997 16.7607 14.8157 16.8628 15.539 16.9503C18.3666 17.293 21.2307 17.3368 24.0656 17.0743C24.2994 17.0524 24.5259 17.0305 24.7597 17.0013C24.8327 16.994 24.9058 17.0013 24.9715 17.0232C25.0373 17.0451 25.1031 17.0888 25.1542 17.1399C25.2053 17.1909 25.2419 17.2493 25.2711 17.3222C25.293 17.3878 25.3076 17.4607 25.3003 17.5337L25.2273 18.2337C25.0811 19.6411 24.935 21.0485 24.7962 22.4631C24.6428 23.9434 24.4966 25.4237 24.3432 26.904C24.2994 27.3197 24.2555 27.7353 24.2117 28.151C24.1678 28.5593 24.1678 28.9823 24.0875 29.3906C23.9633 30.0251 23.5322 30.4188 22.9038 30.5647C22.3266 30.6959 21.7348 30.7616 21.143 30.7688C20.4854 30.7688 19.8279 30.747 19.1703 30.747C18.4689 30.7543 17.6067 30.6886 17.0661 30.1636C16.5912 29.7042 16.5254 28.9896 16.4596 28.3697C16.372 27.553 16.2843 26.729 16.2039 25.9123L15.4221 18.4014C15.4148 18.3504 15.4148 18.3066 15.4075 18.2556C15.371 17.9056 15.1226 17.5628 14.728 17.5774C14.3919 17.592 14.012 17.8764 14.0485 18.2556L14.275 20.4432L14.75 24.9643C14.8815 26.2477 15.0203 27.5311 15.1518 28.8218C15.181 29.0698 15.2029 29.3177 15.2322 29.5584C15.3783 30.9074 16.4085 31.6293 17.6871 31.8335C18.4324 31.9502 19.1922 31.9793 19.9521 31.9866C20.9238 32.0012 21.9029 32.0377 22.8527 31.8627C24.2628 31.6074 25.3222 30.6668 25.4757 29.201C25.5195 28.7781 25.5634 28.3552 25.6072 27.9395C25.7533 26.5467 25.8921 25.1539 26.0383 23.7538L26.7178 17.1107C26.7251 17.0086 26.7689 16.9065 26.842 16.8336C26.915 16.7607 27.0027 16.7024 27.105 16.6878C27.5068 16.6076 27.8941 16.4763 28.179 16.17C28.6028 15.6888 28.6905 15.0543 28.5297 14.4126ZM13.3471 14.8647C13.3544 14.8647 13.3398 14.9158 13.3398 14.9377C13.3325 14.9012 13.3325 14.8647 13.3471 14.8647ZM13.3837 15.1637C13.3837 15.1637 13.3983 15.171 13.4056 15.1929C13.391 15.1783 13.3837 15.1637 13.3837 15.1637ZM13.4202 15.2148C13.4421 15.2585 13.4348 15.2439 13.4202 15.2148V15.2148ZM27.0465 15.1856C26.9004 15.3241 26.6812 15.3898 26.4693 15.4189C24.0509 15.7763 21.5887 15.9586 19.1411 15.8783C17.3875 15.82 15.6559 15.6231 13.917 15.3825C13.749 15.3606 13.5663 15.3241 13.4494 15.2002C13.2302 14.9668 13.3398 14.4928 13.3983 14.2012C13.4494 13.9386 13.5517 13.5886 13.8659 13.5522C14.3481 13.4938 14.918 13.698 15.3929 13.7709C15.9701 13.8584 16.5546 13.9314 17.1318 13.9824C19.616 14.2085 22.1513 14.172 24.6208 13.8438C25.0738 13.7855 25.5195 13.7126 25.9725 13.6324C26.3744 13.5595 26.8127 13.4282 27.0539 13.8366C27.2219 14.1209 27.2438 14.4928 27.2146 14.8137C27.2146 14.9595 27.1488 15.0908 27.0465 15.1856Z" fill="#010202"></path></svg>