<svg xmlns:xlink="http://www.w3.org/1999/xlink" width="64" height="64" viewBox="0 0 40 40" fill="none" xmlns="http://www.w3.org/2000/svg"><rect width="40" height="40" rx="10" fill="#D15584"></rect><g clip-path="url(#clip0_920_2756)" fill="none"><path d="M8 20C8 17.824 8.53602 15.816 9.608 13.976C10.68 12.136 12.136 10.68 13.976 9.608C15.816 8.53599 17.824 8 20 8C22.176 8 24.184 8.53599 26.024 9.608C27.864 10.68 29.32 12.136 30.392 13.976C31.464 15.816 32 17.824 32 20C32 22.176 31.464 24.184 30.392 26.024C29.32 27.864 27.864 29.32 26.024 30.392C24.184 31.464 22.176 32 20 32C17.824 32 15.816 31.464 13.976 30.392C12.136 29.32 10.68 27.864 9.608 26.024C8.53602 24.184 8 22.176 8 20ZM9.992 20C9.992 22.496 10.832 24.696 12.512 26.6C13.28 25.096 14.496 23.664 16.16 22.304C17.824 20.944 19.448 20.088 21.032 19.736C20.792 19.176 20.56 18.672 20.336 18.224C17.584 19.104 14.608 19.544 11.408 19.544C10.784 19.544 10.32 19.536 10.016 19.52C10.016 19.584 10.012 19.664 10.004 19.76C9.99601 19.856 9.992 19.936 9.992 20ZM10.304 17.528C10.656 17.56 11.176 17.576 11.864 17.576C14.536 17.576 17.072 17.216 19.472 16.496C18.256 14.336 16.92 12.536 15.464 11.096C14.2 11.736 13.116 12.624 12.212 13.76C11.308 14.896 10.672 16.152 10.304 17.528ZM13.88 27.896C15.688 29.304 17.728 30.008 20 30.008C21.184 30.008 22.36 29.784 23.528 29.336C23.208 26.6 22.584 23.952 21.656 21.392C20.184 21.712 18.7 22.52 17.204 23.816C15.708 25.112 14.6 26.472 13.88 27.896ZM17.552 10.328C18.96 11.784 20.264 13.6 21.464 15.776C23.64 14.864 25.28 13.704 26.384 12.296C24.528 10.76 22.4 9.992 20 9.992C19.184 9.992 18.368 10.104 17.552 10.328ZM22.328 17.48C22.568 17.992 22.84 18.64 23.144 19.424C24.328 19.312 25.616 19.256 27.008 19.256C28 19.256 28.984 19.28 29.96 19.328C29.832 17.152 29.048 15.216 27.608 13.52C26.568 15.072 24.808 16.392 22.328 17.48ZM23.744 21.104C24.56 23.472 25.112 25.904 25.4 28.4C26.664 27.584 27.696 26.536 28.496 25.256C29.296 23.976 29.776 22.592 29.936 21.104C28.768 21.024 27.704 20.984 26.744 20.984C25.864 20.984 24.864 21.024 23.744 21.104Z" fill="#FFFFFF"></path></g><defs><clipPath id="clip0_920_2756"><rect width="24" height="24" fill="white" transform="translate(8 8)"></rect></clipPath></defs></svg>