<svg xmlns:xlink="http://www.w3.org/1999/xlink" width="16" height="16" viewBox="0 0 16 17" fill="none" xmlns="http://www.w3.org/2000/svg"><rect y="12.5" width="16" height="2" rx="1" fill="#FFFFFF"></rect><path fill-rule="evenodd" clip-rule="evenodd" d="M6.8 4.5H9.2C10.0731 4.5 10.6076 4.50156 11.0075 4.53423C11.1938 4.54945 11.3065 4.56857 11.375 4.58469C11.4076 4.59236 11.4276 4.59879 11.4384 4.60265C11.4488 4.60636 11.4532 4.60858 11.454 4.60899C11.6422 4.70487 11.7951 4.85785 11.891 5.04601C11.8914 5.04681 11.8936 5.05118 11.8973 5.06158C11.9012 5.07241 11.9076 5.09244 11.9153 5.125C11.9314 5.19345 11.9505 5.30617 11.9658 5.49247C11.9984 5.89239 12 6.42692 12 7.3V11.5H14V7.3C14 5.61984 14 4.77976 13.673 4.13803C13.3854 3.57354 12.9265 3.1146 12.362 2.82698C11.7202 2.5 10.8802 2.5 9.2 2.5H6.8C5.11984 2.5 4.27976 2.5 3.63803 2.82698C3.07354 3.1146 2.6146 3.57354 2.32698 4.13803C2 4.77976 2 5.61984 2 7.3V11.5H4V7.3C4 6.42692 4.00156 5.89239 4.03423 5.49247C4.04945 5.30617 4.06857 5.19345 4.08469 5.125C4.09236 5.09244 4.09879 5.07241 4.10265 5.06158C4.10636 5.05118 4.10858 5.04681 4.10899 5.04601C4.20487 4.85785 4.35785 4.70487 4.54601 4.60899C4.54681 4.60858 4.55118 4.60636 4.56158 4.60265C4.57241 4.59879 4.59244 4.59236 4.625 4.58469C4.69345 4.56857 4.80617 4.54945 4.99247 4.53423C5.39239 4.50156 5.92692 4.5 6.8 4.5Z" fill="#FFFFFF"></path></svg>