<svg width="44" height="44" viewBox="0 0 40 40" fill="none" xmlns="http://www.w3.org/2000/svg"><rect width="40" height="40" rx="10" fill="#006699"></rect><path fill-rule="evenodd" clip-rule="evenodd" d="M14.7344 29V15.5053H10.249V29H14.7344ZM12.4917 13.6629C14.0558 13.6629 15.0294 12.6266 15.0294 11.3316C15.0002 10.0075 14.0558 9 12.5214 9C10.9871 9 9.98389 10.0075 9.98389 11.3316C9.98389 12.6266 10.9572 13.6629 12.4625 13.6629H12.4916H12.4917Z" fill="white"></path><path fill-rule="evenodd" clip-rule="evenodd" d="M17.2163 29H21.7016V21.464C21.7016 21.0607 21.7308 20.6578 21.8492 20.3695C22.1735 19.5636 22.9115 18.7291 24.1506 18.7291C25.7736 18.7291 26.4229 19.9666 26.4229 21.7807V29H30.9078V21.2624C30.9078 17.1174 28.695 15.1887 25.744 15.1887C23.3243 15.1887 22.262 16.5412 21.6718 17.4624H21.7017V15.5053H17.2164C17.2753 16.7716 17.2164 29 17.2164 29H17.2163Z" fill="white"></path></svg>