<svg xmlns:xlink="http://www.w3.org/1999/xlink" width="16" height="16" viewBox="0 0 17 17" fill="none" xmlns="http://www.w3.org/2000/svg"><g clip-path="url(#clip0_2407_5104)" fill="none"><path fill-rule="evenodd" clip-rule="evenodd" d="M8.1 2.5H8.9C9.91309 2.5 10.5526 2.50156 11.0359 2.54104C11.4959 2.57862 11.6356 2.64035 11.681 2.66349C11.9632 2.8073 12.1927 3.03677 12.3365 3.31901C12.3596 3.36442 12.4214 3.50412 12.459 3.96407C12.4984 4.44737 12.5 5.08691 12.5 6.1V10.9C12.5 11.9131 12.4984 12.5526 12.459 13.0359C12.4214 13.4959 12.3596 13.6356 12.3365 13.681C12.1927 13.9632 11.9632 14.1927 11.681 14.3365C11.6356 14.3596 11.4959 14.4214 11.0359 14.459C10.5526 14.4984 9.91309 14.5 8.9 14.5H8.1C7.08691 14.5 6.44737 14.4984 5.96407 14.459C5.50412 14.4214 5.36442 14.3596 5.31901 14.3365C5.03677 14.1927 4.8073 13.9632 4.66349 13.681C4.64035 13.6356 4.57862 13.4959 4.54104 13.0359C4.50156 12.5526 4.5 11.9131 4.5 10.9V6.1C4.5 5.08691 4.50156 4.44737 4.54104 3.96407C4.57862 3.50412 4.64035 3.36442 4.66349 3.31901C4.8073 3.03677 5.03677 2.8073 5.31901 2.66349C5.36442 2.64035 5.50412 2.57862 5.96407 2.54104C6.44737 2.50156 7.08691 2.5 8.1 2.5ZM2.5 6.1C2.5 4.13982 2.5 3.15972 2.88148 2.41103C3.21703 1.75247 3.75247 1.21703 4.41103 0.881477C5.15972 0.5 6.13982 0.5 8.1 0.5H8.9C10.8602 0.5 11.8403 0.5 12.589 0.881477C13.2475 1.21703 13.783 1.75247 14.1185 2.41103C14.5 3.15972 14.5 4.13982 14.5 6.1V10.9C14.5 12.8602 14.5 13.8403 14.1185 14.589C13.783 15.2475 13.2475 15.783 12.589 16.1185C11.8403 16.5 10.8602 16.5 8.9 16.5H8.1C6.13982 16.5 5.15972 16.5 4.41103 16.1185C3.75247 15.783 3.21703 15.2475 2.88148 14.589C2.5 13.8403 2.5 12.8602 2.5 10.9V6.1ZM7.5 3.5C6.94772 3.5 6.5 3.94772 6.5 4.5C6.5 5.05228 6.94772 5.5 7.5 5.5H9.5C10.0523 5.5 10.5 5.05228 10.5 4.5C10.5 3.94772 10.0523 3.5 9.5 3.5H7.5Z" fill="currentColor"></path></g><defs><clipPath id="clip0_2407_5104"><rect width="16" height="16" fill="white" transform="translate(0.5 0.5)"></rect></clipPath></defs></svg>