<svg width="14" height="14" viewBox="0 0 14 14" fill="none" xmlns="http://www.w3.org/2000/svg"><path d="M3.36569 2.23431C3.05327 1.9219 2.54673 1.9219 2.23431 2.23431C1.9219 2.54673 1.9219 3.05327 2.23431 3.36569L6.06274 7.19411L2.23431 11.0225C1.9219 11.335 1.9219 11.8415 2.23431 12.1539C2.54673 12.4663 3.05327 12.4663 3.36569 12.1539L7.19411 8.32548L11.0225 12.1539C11.335 12.4663 11.8415 12.4663 12.1539 12.1539C12.4663 11.8415 12.4663 11.335 12.1539 11.0225L8.32548 7.19411L12.1539 3.36569C12.4663 3.05327 12.4663 2.54673 12.1539 2.23431C11.8415 1.9219 11.335 1.92189 11.0225 2.23431L7.19411 6.06274L3.36569 2.23431Z" fill="#fff"></path></svg>